<svg xmlns="http://www.w3.org/2000/svg" width="37" height="37"><path d="M17.832 26.95a8.443 8.443 0 0 1-3.954-1.36 8.684 8.684 0 0 1-2.151-2.033 8.452 8.452 0 0 1-1.536-6.445 8.457 8.457 0 0 1 7.55-6.976c.257-.023.852-.047.84-.034a7.303 7.303 0 0 0-1.24 1.228 7.107 7.107 0 0 0-1.325 6.181 7.138 7.138 0 0 0 5.468 5.223c.54.11.811.135 1.434.135.44 0 .622-.006.821-.032a7.417 7.417 0 0 0 2.208-.632.84.84 0 0 1 .17-.067 2.01 2.01 0 0 1-.12.26 8.436 8.436 0 0 1-6.838 4.553c-.273.022-1.073.02-1.327-.001z" fill="#a1b1b3"/></svg>