<svg xmlns="http://www.w3.org/2000/svg" height="37" width="37"><path d="M26.899 16.987a6.004 6.004 0 0 1-2.895-1.04 6.496 6.496 0 0 1-1.575-1.555c-.998-1.404-1.405-3.19-1.124-4.931.284-1.752 1.272-3.324 2.708-4.309a6.01 6.01 0 0 1 2.819-1.029c.189-.017.624-.035.615-.025l-.094.08c-.28.234-.57.54-.814.86-1.012 1.326-1.37 3.069-.97 4.728.485 2.012 2.06 3.585 4.003 3.996.396.083.594.103 1.05.103.322 0 .456-.005.601-.024a5.252 5.252 0 0 0 1.617-.484.6.6 0 0 1 .124-.051c.003.003-.036.093-.088.2a6.436 6.436 0 0 1-1.726 2.164 6.023 6.023 0 0 1-3.28 1.318c-.2.017-.785.016-.971 0z" fill="#a1b1b3"/><switch transform="translate(-2.782)"><g><g fill="#009ed6"><path d="M22.456 31.775a2.414 2.414 0 1 1-4.83 0c0-1.334 2.599-5.258 2.599-5.238 0 .029 2.231 3.904 2.231 5.238zM28.875 31.775a2.414 2.414 0 1 1-4.829 0c0-1.334 2.597-5.258 2.597-5.238 0 .029 2.232 3.904 2.232 5.238zM15.74 31.775a2.414 2.414 0 1 1-4.829 0c0-1.334 2.598-5.258 2.598-5.238 0 .029 2.231 3.904 2.231 5.238z"/></g><path d="M27.497 14.171c-1.088-3.08-3.998-5.289-7.43-5.289-3.424 0-6.328 2.201-7.422 5.27a5.201 5.201 0 0 0 .174 10.399 5.167 5.167 0 0 0 3.049-.994 7.803 7.803 0 0 0 8.209.118 5.204 5.204 0 1 0 3.42-9.504z" fill="#fff" stroke="#2b343b"/></g></switch></svg>