<svg xmlns="http://www.w3.org/2000/svg" width="37" height="37"><path d="M26.9 16.987a6.009 6.009 0 0 1-2.896-1.04 6.485 6.485 0 0 1-1.575-1.555c-.998-1.404-1.405-3.19-1.124-4.931.284-1.752 1.272-3.324 2.708-4.309a6.012 6.012 0 0 1 2.82-1.029c.188-.017.623-.035.614-.025a5.476 5.476 0 0 0-.908.94c-1.012 1.326-1.37 3.069-.97 4.728.485 2.012 2.06 3.585 4.004 3.996.395.083.594.103 1.05.103.322 0 .455-.005.6-.025a5.253 5.253 0 0 0 1.617-.483.6.6 0 0 1 .125-.051c.003.003-.037.093-.089.2a6.435 6.435 0 0 1-1.726 2.163 6.024 6.024 0 0 1-3.28 1.32c-.2.015-.785.015-.97-.002z" fill="#a1b1b3"/><switch transform="translate(-2.782)"><g><path d="M27.496 14.171c-1.088-3.08-3.998-5.289-7.43-5.289-3.423 0-6.327 2.201-7.421 5.27a5.201 5.201 0 0 0 .174 10.399 5.167 5.167 0 0 0 3.049-.994 7.802 7.802 0 0 0 8.208.118 5.204 5.204 0 1 0 3.42-9.504z" fill="#fff" stroke="#2b343b"/></g></switch></svg>