<svg xmlns="http://www.w3.org/2000/svg" height="37" width="37"><path d="M26.879 16.987a6.008 6.008 0 0 1-2.895-1.04 6.484 6.484 0 0 1-1.575-1.555c-.999-1.405-1.406-3.19-1.124-4.931.284-1.752 1.271-3.324 2.708-4.31a6.012 6.012 0 0 1 2.82-1.028c.187-.017.623-.035.614-.025l-.093.08c-.281.234-.571.54-.815.86-1.012 1.326-1.37 3.069-.97 4.728.485 2.012 2.06 3.585 4.004 3.996.395.083.593.103 1.049.103.323 0 .456-.005.602-.025a5.252 5.252 0 0 0 1.616-.483.6.6 0 0 1 .124-.051c.003.003-.036.093-.088.2a6.436 6.436 0 0 1-1.726 2.164 6.023 6.023 0 0 1-3.28 1.318c-.2.017-.785.016-.971-.001z" fill="#a1b1b3"/><switch transform="translate(-2.802)"><g><path d="M27.517 14.171c-1.088-3.08-3.998-5.289-7.43-5.289-3.424 0-6.328 2.201-7.422 5.27a5.201 5.201 0 0 0 .174 10.399 5.167 5.167 0 0 0 3.049-.994 7.803 7.803 0 0 0 8.209.118 5.204 5.204 0 1 0 3.42-9.504z" fill="#fff" stroke="#2b343b"/><g clip-rule="evenodd" fill="#009ed6" fill-rule="evenodd"><path d="M23.898 30.729l-.211-.365h-.932l.281-.502-.211-.365h-.42l-.494.867h-1.379l.689-1.194.957-.005.211-.365-.211-.365-.535.004.467-.806-.213-.365h-.42l-.467.807-.277-.48h-.422l-.211.365.49.845-.69 1.194-.688-1.195.425-.729-.211-.365h-.42l-.216.364-.466-.807h-.422l-.211.365.466.806-.582.025-.212.365.212.365 1.004-.024.688 1.194h-1.379l-.481-.779h-.422l-.21.364.271.415h-.932l-.211.365.211.365h.932l-.241.436.209.365h.423l.452-.801h1.379l-.688 1.195-.859-.004-.211.364.211.366.438.003-.466.808.211.365h.422l.466-.808.289.458h.419l.211-.365-.497-.822.686-1.193.691 1.195-.432.764.211.365h.422l.219-.399.467.808h.42l.213-.365-.467-.808.578.012.211-.366-.21-.366-1-.01-.689-1.195h1.379l.465.815h.42l.213-.365-.254-.45h.932l.209-.366zM32.207 30.729l-.211-.365h-.932l.283-.502-.211-.365h-.422l-.492.867h-1.381l.689-1.194.959-.005.209-.365-.209-.365-.535.004.465-.806-.211-.365h-.422l-.467.807-.277-.48h-.422l-.211.365.49.845L28.208 30l-.689-1.195.426-.729-.209-.365h-.422l-.217.364-.465-.807h-.422l-.21.365.465.806-.582.025-.211.365.211.365 1.004-.024.691 1.194h-1.381l-.482-.779h-.422l-.209.364.27.415h-.932l-.211.365.211.365h.932l-.24.436.209.365h.422l.453-.801h1.381l-.691 1.195-.859-.004-.209.364.209.366.438.003-.467.809.211.365h.422l.465-.808.289.458h.42l.213-.365-.5-.822.689-1.195.691 1.195-.432.764.211.365h.422l.219-.399.467.808h.422l.211-.365-.465-.808.578.012.211-.366-.211-.366-1.002-.01-.689-1.195h1.381l.463.815h.422l.211-.365-.254-.45h.932l.21-.366zM15.612 30.729l-.211-.365h-.931l.282-.502-.212-.365h-.421l-.493.867h-1.38l.69-1.194.957-.005.211-.365-.211-.365-.535.004.466-.806-.212-.365h-.421l-.466.807-.277-.48h-.422l-.211.365.489.845-.69 1.195-.689-1.195.426-.729-.211-.366h-.421l-.216.364-.466-.807h-.422l-.211.365.466.806-.582.025-.212.365.212.365 1.004-.024.689 1.194h-1.38l-.481-.778h-.422l-.21.364.271.415h-.932l-.211.365.211.365h.932l-.241.436.209.365h.423l.452-.801h1.38l-.689 1.195-.859-.004-.212.365.211.366.437.004-.466.808.211.365h.422l.466-.808.289.458h.42l.211-.365-.498-.822.689-1.195.69 1.195-.431.764.21.365h.422l.22-.399.466.808h.421l.212-.365-.466-.808.578.012.211-.366-.21-.367-1-.01-.69-1.195h1.38l.464.815h.421l.212-.365-.253-.45h.932l.209-.366z"/></g></g></switch></svg>