<svg xmlns="http://www.w3.org/2000/svg" width="37" height="37"><switch><g><path fill="#FABA25" d="M12.576 4.531l1.714 3.273 3.212-1.826-.327 3.68 3.691.199-2.266 2.922 2.996 2.162-3.485 1.23 1.353 3.442-3.599-.848-.722 3.624-2.567-2.659-2.569 2.659-.722-3.624-3.598.848 1.352-3.442-3.486-1.23 2.998-2.162-2.265-2.922 3.69-.199-.328-3.68 3.212 1.826z"/><circle cx="12.574" cy="13.618" r="4.955" fill="#faba25" stroke="#fff" stroke-width="1.014"/><g><path fill="#FFF" stroke="#2b343b" d="M27.497 14.171c-1.088-3.08-3.998-5.289-7.43-5.289-3.424 0-6.328 2.201-7.422 5.27a5.2 5.2 0 0 0 .174 10.398 5.167 5.167 0 0 0 3.049-.994 7.803 7.803 0 0 0 8.209.118 5.204 5.204 0 1 0 3.42-9.503z"/><path fill="#FABA25" d="M27.168 15.104l-9.195 1.942-4.87 8.789 3.159-2.41-3.645 6.576 10.672-9.721-3.485.444z"/></g></g></switch></svg>