<svg xmlns="http://www.w3.org/2000/svg" height="37" width="37"><path d="M26.899 16.987a6.008 6.008 0 0 1-2.895-1.04 6.484 6.484 0 0 1-1.575-1.555c-.999-1.405-1.406-3.19-1.124-4.931.284-1.752 1.271-3.324 2.708-4.31a6.012 6.012 0 0 1 2.82-1.028c.187-.017.623-.035.614-.025l-.093.08c-.281.234-.571.54-.815.86-1.012 1.326-1.37 3.069-.97 4.728.485 2.012 2.06 3.585 4.004 3.996.395.083.593.103 1.049.103.323 0 .456-.005.602-.025a5.252 5.252 0 0 0 1.616-.483.6.6 0 0 1 .124-.051c.003.003-.036.093-.088.2a6.436 6.436 0 0 1-1.726 2.164 6.023 6.023 0 0 1-3.28 1.318c-.2.017-.785.016-.971-.001z" fill="#a1b1b3"/><switch transform="translate(-2.782)"><g><path d="M27.497 14.171c-1.088-3.08-3.998-5.289-7.43-5.289-3.424 0-6.328 2.201-7.422 5.27a5.2 5.2 0 0 0 .174 10.398 5.167 5.167 0 0 0 3.049-.994 7.803 7.803 0 0 0 8.209.118 5.204 5.204 0 1 0 3.42-9.503z" fill="#fff" stroke="#2b343b"/><path fill="#faba25" d="M17.973 17.046l-4.87 8.789 3.159-2.41-3.645 6.576 10.672-9.721-3.485.444 7.364-5.62z"/></g></switch></svg>