<svg xmlns="http://www.w3.org/2000/svg" height="37" width="37"><path d="M26.899 16.987a6.008 6.008 0 0 1-2.895-1.04 6.484 6.484 0 0 1-1.575-1.555c-.999-1.405-1.406-3.19-1.124-4.931.284-1.752 1.271-3.324 2.708-4.31a6.012 6.012 0 0 1 2.82-1.028c.187-.017.623-.035.614-.025l-.093.08c-.281.234-.571.54-.815.86-1.012 1.326-1.37 3.069-.97 4.728.485 2.012 2.06 3.585 4.004 3.996.395.083.593.103 1.049.103.323 0 .456-.005.602-.025a5.252 5.252 0 0 0 1.616-.483.6.6 0 0 1 .124-.051c.003.003-.036.093-.088.2a6.436 6.436 0 0 1-1.726 2.164 6.023 6.023 0 0 1-3.28 1.318c-.2.017-.785.016-.971-.001z" fill="#a1b1b3"/><switch transform="translate(-2.782)"><g><path d="M27.497 14.169c-1.088-3.08-3.998-5.287-7.43-5.287-3.424 0-6.328 2.199-7.422 5.27a5.197 5.197 0 0 0-5.029 5.193 5.204 5.204 0 0 0 5.203 5.203 5.167 5.167 0 0 0 3.049-.994 7.805 7.805 0 0 0 4.199 1.229c1.467 0 2.834-.41 4.01-1.111a5.204 5.204 0 1 0 3.42-9.503z" fill="#fff" stroke="#2b343b"/><g fill="#faba25"><path d="M19.786 21.749l-4.871 8.789 3.16-2.41-3.644 6.574 10.672-9.721-3.487.444 7.365-5.619zM16.159 14.495l-4.871 8.787 3.16-2.41-3.644 6.576 10.672-9.721-3.487.443 7.365-5.618z"/></g></g></switch></svg>