<svg xmlns="http://www.w3.org/2000/svg" height="37" width="37"><path d="M26.899 16.987a6.008 6.008 0 0 1-2.895-1.04 6.484 6.484 0 0 1-1.575-1.555c-.999-1.405-1.406-3.19-1.124-4.931.284-1.752 1.271-3.324 2.708-4.31a6.012 6.012 0 0 1 2.82-1.028c.187-.017.623-.035.614-.025l-.093.08c-.281.234-.571.54-.815.86-1.012 1.326-1.37 3.069-.97 4.728.485 2.012 2.06 3.585 4.004 3.996.395.083.593.103 1.049.103.323 0 .456-.005.602-.025a5.252 5.252 0 0 0 1.616-.483.6.6 0 0 1 .124-.051c.003.003-.036.093-.088.2a6.436 6.436 0 0 1-1.726 2.164 6.023 6.023 0 0 1-3.28 1.318c-.2.017-.785.016-.971-.001z" fill="#a1b1b3"/><switch transform="translate(-2.782)"><g><g fill="#009ed6"><path d="M19.098 31.775a2.414 2.414 0 1 1-4.83 0c0-1.334 2.599-5.258 2.599-5.238 0 .029 2.231 3.904 2.231 5.238zM25.517 31.775a2.414 2.414 0 1 1-4.829 0c0-1.334 2.597-5.258 2.597-5.238-.001.029 2.232 3.904 2.232 5.238z"/></g><path d="M27.496 14.171c-1.088-3.08-3.998-5.289-7.43-5.289-3.423 0-6.327 2.201-7.421 5.27a5.201 5.201 0 0 0 .174 10.399 5.167 5.167 0 0 0 3.049-.994 7.802 7.802 0 0 0 8.208.118 5.204 5.204 0 1 0 3.42-9.504z" fill="#fff" stroke="#2b343b"/><g clip-rule="evenodd" fill="#009ed6" fill-rule="evenodd"><path d="M18.958 18.997l-.211-.364h-.932l.281-.502-.211-.365h-.421l-.493.867h-1.38l.69-1.194.957-.006.211-.364-.211-.365-.535.004.466-.806-.212-.365h-.421l-.466.807-.277-.48h-.422l-.211.365.489.845-.69 1.195-.689-1.195.426-.729-.211-.365h-.421l-.216.364-.466-.807h-.422l-.211.365.466.806-.582.025-.212.364.212.365 1.004-.023.689 1.194h-1.38l-.481-.78h-.422l-.21.365.271.415h-.932l-.211.364.211.365h.932l-.241.436.209.365h.423l.452-.801h1.38l-.689 1.195-.859-.004-.211.365.211.365.438.004-.466.807.211.365h.422l.466-.807.289.457h.42l.211-.365-.498-.822.689-1.195.69 1.195-.431.766.21.365h.422l.22-.4.466.807h.421l.212-.365-.466-.807.578.012.211-.365-.211-.365-1-.012-.69-1.195h1.38l.464.816h.421l.212-.365-.253-.451h.932l.209-.366zM28.823 18.997l-.211-.364h-.932l.282-.502-.211-.365h-.421l-.492.867h-1.38l.689-1.194.958-.006.21-.364-.21-.365-.535.004.465-.806-.211-.365h-.422l-.466.807-.277-.48h-.422l-.211.365.489.845-.69 1.195-.689-1.195.426-.729-.21-.365h-.422l-.216.364-.466-.807h-.421l-.212.365.466.806-.582.025-.211.364.211.365 1.004-.023.69 1.194h-1.38l-.482-.78h-.422l-.21.365.271.415h-.932l-.211.364.211.365h.932l-.241.436.21.365h.422l.453-.801h1.38l-.69 1.195-.859-.004-.21.365.21.365.438.004-.466.807.212.365h.421l.466-.807.289.457h.42l.212-.365-.499-.822.689-1.195.69 1.195-.431.766.211.365h.421l.22-.4.466.807h.422l.211-.365-.465-.807.578.012.211-.365-.211-.365-1.001-.012-.689-1.195h1.38l.463.816h.422l.211-.365-.253-.451h.932l.208-.366z"/></g></g></switch></svg>